<svg id="Capa_1" enable-background="new 0 0 511.059 511.059" height="512" viewBox="0 0 511.059 511.059" width="512" xmlns="http://www.w3.org/2000/svg"><g><g><g><path d="m296.488 124.351c.52-6.84 3.03-13.57 7.56-19.27 6.92-8.72 17.22-13.36 27.68-13.36 6.51 0 13.09 1.8 18.94 5.53l51.34 32.67c18.98 12.08 29.95 33.49 28.67 55.95l-4.2 73.59c-1.59 27.84-14.41 53.84-35.53 72.05l-65.89 56.83c-.78.67-1.23 1.65-1.23 2.68v103.852c0 4.798-3.89 8.688-8.688 8.688h-181.264c-4.798 0-8.688-3.89-8.688-8.688v-91.502c0-2.544-.745-5.033-2.142-7.158l-7.378-11.222c-19.73-30-30.24-65.13-30.24-101.03v-131.84-60.4z" fill="#ffefe7"/></g><g><path d="m332.377 382.029 16.188-13.962v-241.766h-72.163c-.19 14.297 5.183 28.237 15.045 38.7l14.027 14.877c2.698 2.862 1.75 7.514-1.84 9.121-10.691 4.786-20.646 10.805-29.701 17.907-25.628 20.099-40.78 50.729-41.896 83.279l-.819 23.902c0 37.523 30.418 67.941 67.941 67.941h33.218z" fill="#ffd1c2"/><path d="m304.048 105.081c-4.53 5.7-7.04 12.43-7.56 19.27l-211.06-32.63v60.4 131.84c0 35.9 10.51 71.03 30.24 101.03l7.378 11.222c1.398 2.126 2.142 4.614 2.142 7.158v91.502c0 4.798 3.89 8.688 8.688 8.688h23.923c-.02-.243-.037-.486-.037-.734v-99.484c0-3.861-1.13-7.637-3.251-10.862l-6.269-9.535c-19.73-30-30.24-65.13-30.24-101.03v-82.742c0-5.137 3.698-9.483 8.749-10.422 6.818-1.268 13.206-3.772 18.924-7.27 3.28-2.007 7.453-1.888 10.583.347 9.196 6.566 20.445 10.434 32.581 10.434 13.476 0 25.851-4.777 35.539-12.719 3.042-2.494 7.256-2.918 10.736-1.084 7.799 4.111 16.673 6.443 26.084 6.443 13.638 0 26.793-4.953 37.029-13.936 10.137-8.88 16.745-21.113 18.608-34.447l.159-1.139.394-16.439v-24.175c-5.073 2.247-9.681 5.704-13.34 10.314z" fill="#ffd1c2"/><path d="m297.388 50.731v67.97l-.36 15.05c-1.23 8.8-5.61 16.59-11.98 22.17-6.37 5.59-14.71 8.98-23.85 8.98-19.98 0-36.18-16.2-36.18-36.19v-70.61-7.37c0-9.99 4.05-19.03 10.6-25.58 6.54-6.55 15.59-10.6 25.58-10.6 19.99 0 36.19 16.2 36.19 36.18z" fill="#ffefe7"/><path d="m246.665 135.945v-74.921-12.29c0-11.237 4.346-21.405 11.374-28.772 1.88-1.974 3.959-3.745 6.194-5.282-1.001-.083-2.011-.129-3.034-.129-9.99 0-19.04 4.05-25.58 10.6-6.55 6.55-10.6 15.59-10.6 25.58v11.37 66.61c0 18.933 14.534 34.456 33.046 36.046-7.043-7.368-11.4-17.555-11.4-28.812z" fill="#ffe0d1"/><g id="XMLID_110_"><g><path d="m225.018 128.711v7.37c0 19.98-16.2 36.18-36.18 36.18-19.99 0-36.19-16.2-36.19-36.18v-2.56-64.98-6.44c0-10 4.05-19.04 10.6-25.59s15.59-10.6 25.59-10.6c19.98 0 36.18 16.2 36.18 36.19z" fill="#ffefe7"/></g></g><g id="XMLID_111_"><g><path d="m178.053 142.427v-2.879-73.089-7.244c0-11.248 4.346-21.416 11.374-28.783 1.436-1.505 2.988-2.885 4.633-4.141-1.706-.247-3.448-.38-5.222-.38-10 0-19.04 4.05-25.59 10.6s-10.6 15.59-10.6 25.59v6.44 64.98 2.56c0 19.98 16.2 36.18 36.19 36.18.539 0 1.074-.017 1.608-.041-7.621-7.43-12.393-18.025-12.393-29.793z" fill="#ffe0d1"/></g></g></g><g><path d="m369.754 42.68v73.97l-.36 15.05c-1.23 8.8-5.61 16.59-11.98 22.17-6.37 5.59-14.71 8.98-23.85 8.98-19.98 0-36.18-16.2-36.18-36.19v-66.61-17.37c0-9.99 4.05-19.03 10.6-25.58 6.54-6.55 15.59-10.6 25.58-10.6 19.99 0 36.19 16.2 36.19 36.18z" fill="#ffefe7"/><path d="m361.42 80.387c-8.893-5.669-19.16-8.666-29.692-8.666-2.37 0-4.716.15-7.027.443-3.891.494-7.313-2.595-7.313-6.517v-7.243-18.29c0-11.237 4.346-21.405 11.374-28.772 1.698-1.782 3.556-3.407 5.545-4.836-.248-.005-.494-.007-.744-.007-9.99 0-19.04 4.05-25.58 10.6-6.55 6.55-10.6 15.59-10.6 25.58v17.37 66.61c0 18.522 13.911 33.78 31.847 35.923-4.415-4.477-7.812-10.044-9.816-16.284h44.534c2.795-4.32 4.7-9.272 5.444-14.599l.36-15.05v-30.959z" fill="#ffe0d1"/></g><path d="m402.008 129.921c18.98 12.08 29.95 33.49 28.67 55.95l-4.2 73.59c-1.59 27.84-14.41 53.84-35.53 72.05l-65.89 56.83c-.78.67-1.23 1.65-1.23 2.68v2.3c-40.101 0-72.61-32.509-72.61-72.61v-17.745c0-42.739 25.53-81.758 65.199-97.665.925-.371 1.855-.731 2.791-1.08l20.73-7.73c3.05-1.14 3.96-5.02 1.72-7.39l-35.66-37.82c-7.04-7.47-10.25-17.31-9.51-26.93.52-6.84 3.03-13.57 7.56-19.27 6.92-8.72 17.22-13.36 27.68-13.36 6.51 0 13.09 1.8 18.94 5.53z" fill="#ffefe7"/></g><g><path d="m152.648 76.541v56.98c0 19.98-16.2 36.18-36.18 36.18s-36.18-16.2-36.18-36.18v-56.98c0-9.99 4.05-19.04 10.6-25.58 6.55-6.55 15.59-10.6 25.58-10.6 19.98 0 36.18 16.2 36.18 36.18z" fill="#ffefe7"/><path d="m100.411 139.547v-65.088c0-11.237 4.346-21.416 11.374-28.772 1.888-1.979 3.975-3.748 6.217-5.287-.509-.021-1.019-.039-1.534-.039-9.99 0-19.03 4.05-25.58 10.6-6.55 6.54-10.6 15.59-10.6 25.58v56.98c0 18.807 14.355 34.26 32.704 36.01-7.732-7.439-12.581-18.117-12.581-29.984z" fill="#ffe0d1"/></g><g><path d="m406.035 123.596-28.783-18.319v-61.593c0-24.088-19.596-43.684-43.683-43.684-16.663 0-31.171 9.381-38.536 23.136-8.017-9.81-20.204-16.085-33.832-16.085-17.494 0-32.611 10.342-39.581 25.229-8.012-9.103-19.736-14.863-32.786-14.863-18.297 0-33.993 11.313-40.487 27.307-7.977-8.523-19.314-13.864-31.88-13.864-24.087 0-43.684 19.596-43.684 43.684v58.979c0 7.419 1.865 14.409 5.142 20.535v66.038c0 4.142 3.357 7.5 7.5 7.5s7.5-3.358 7.5-7.5v-49.806c6.8 4.369 14.877 6.916 23.542 6.916 14.503 0 27.37-7.11 35.32-18.021 7.727 12.345 21.441 20.577 37.048 20.577 16.739 0 31.301-9.468 38.633-23.326 8.018 9.74 20.163 15.961 33.734 15.961 14.958 0 28.448-7.705 36.355-19.529.925 1.227 1.916 2.419 2.989 3.557l32.612 34.591-16.574 6.18c-31.958 11.917-57.58 35.465-72.146 66.309-1.769 3.746-.166 8.216 3.579 9.984 3.746 1.769 8.216.167 9.985-3.579 12.885-27.285 35.551-48.117 63.822-58.659l20.734-7.731c3.794-1.415 6.608-4.614 7.528-8.557.919-3.944-.19-8.058-2.969-11.005l-35.658-37.822c-9.421-9.993-10.084-25.638-1.541-36.392 8.885-11.186 24.673-13.836 36.725-6.167l51.339 32.674c16.674 10.612 26.332 29.461 25.204 49.193l-4.199 73.59c-1.465 25.662-13.469 50.008-32.933 66.795l-6.675 5.756c-3.137 2.705-3.486 7.441-.781 10.578 1.483 1.72 3.577 2.602 5.683 2.602 1.735 0 3.479-.599 4.896-1.82l6.675-5.757c22.525-19.427 36.416-47.602 38.111-77.299l4.2-73.59c1.436-25.151-10.875-49.177-32.128-62.703zm-188.517 12.483c0 15.816-12.867 28.684-28.684 28.684s-28.684-12.867-28.684-28.684v-28.373c0-4.142-3.357-7.5-7.5-7.5s-7.5 3.358-7.5 7.5v25.817c0 15.816-12.867 28.684-28.684 28.684s-28.684-12.867-28.684-28.684v-58.98c0-15.816 12.867-28.684 28.684-28.684s28.684 12.867 28.684 28.684c0 4.142 3.357 7.5 7.5 7.5s7.5-3.358 7.5-7.5c0-1.131 0-13.443 0-13.443 0-15.816 12.867-28.684 28.684-28.684s28.684 12.867 28.684 28.684zm43.683 21.318c-15.816 0-28.684-12.867-28.684-28.684v-77.979c0-15.816 12.867-28.684 28.684-28.684s28.684 12.867 28.684 28.684v67.365c-1.072 5.097-1.208 10.348-.426 15.476-2.329 13.641-14.321 23.822-28.258 23.822zm43.684-63.74v-49.973c0-15.816 12.867-28.684 28.684-28.684s28.684 12.867 28.684 28.684v52.047l-7.556-4.809c-15.805-10.06-35.785-8.576-49.812 2.735z"/><path d="m355.125 352.505-34.96 30.153c-2.436 2.1-3.833 5.148-3.833 8.365v112.536c0 4.142 3.357 7.5 7.5 7.5s7.5-3.358 7.5-7.5v-110.724l33.59-28.972c3.137-2.705 3.486-7.441.781-10.578-2.706-3.137-7.443-3.485-10.578-.78z"/><path d="m121.934 380.867c-18.978-28.857-29.009-62.368-29.009-96.907v-31.901c0-4.142-3.357-7.5-7.5-7.5s-7.5 3.358-7.5 7.5v31.901c0 37.477 10.884 73.837 31.476 105.149l7.375 11.215c.596.906.911 1.959.911 3.044v100.191c0 4.142 3.357 7.5 7.5 7.5s7.5-3.358 7.5-7.5v-100.191c0-4.023-1.168-7.926-3.378-11.287z"/></g></g></svg>