<svg id="Capa_1" enable-background="new 0 0 497 497" height="512" viewBox="0 0 497 497" width="512" xmlns="http://www.w3.org/2000/svg"><g><g><g><path d="m234.19 96.812-.434-.398c-23.274-21.335-55.88-29.211-86.326-20.853-38.674 10.616-78.596 15.996-118.7 15.996h-13.299c-8.086 0-12.135 9.776-6.418 15.494l10.518 10.518c7.57 7.57 17.838 11.823 28.544 11.823h9.648c10.706 0 20.974 4.253 28.544 11.823 7.57 7.57 17.838 11.823 28.544 11.823h19.632c10.706 0 20.974 4.253 28.544 11.823l5.518 5.518c7.57 7.57 17.838 11.823 28.544 11.823h37.141z" fill="#62a4fb"/></g></g><g><g><path d="m237.306 264.715c4.619-1.528 6.893-5.762 11.35-8.902-.609-.188-1.218-.374-1.824-.56-32.765-10.034-65.323-20.745-97.646-32.123-4.736-1.667-9.662-3.473-13.084-7.148-7.254-7.788-3.177-22.742 7.025-25.771 8.283-2.459 16.814 2.105 25.287 3.793 7.103 1.415 14.799.689 21.036-2.993s10.748-10.555 10.65-17.797c-.145-10.706-10.174-19.288-20.716-21.167-10.541-1.879-21.291 1.427-31.22 5.435-6.064 2.448-12.015 4.173-17.83 7.164-5.257 2.704-9.936 6.065-13.832 10.448-7.644 8.601-12.436 19.076-12.353 30.753.088 12.277 5.637 24.416 14.863 32.516 8.969 7.875 20.682 11.718 32.039 15.393 18.587 6.014 37.152 12.099 55.695 18.248 13.382 2.936 20.945-4.108 30.56-7.289z" fill="#a2f5c3"/></g></g><g><g><path d="m262.81 96.812.434-.398c23.274-21.335 55.88-29.211 86.326-20.853 38.673 10.616 78.595 15.996 118.699 15.996h13.298c8.086 0 12.135 9.776 6.418 15.494l-10.518 10.518c-7.57 7.57-17.838 11.823-28.544 11.823h-9.648c-10.706 0-20.974 4.253-28.544 11.823-7.57 7.57-17.838 11.823-28.544 11.823h-19.632c-10.706 0-20.974 4.253-28.544 11.823l-5.517 5.518c-7.57 7.57-17.838 11.823-28.544 11.823h-37.14z" fill="#62a4fb"/></g></g><g><g><path d="m481.568 91.557h-13.298c-5.497 0-10.99-.111-16.477-.313l-4.324 4.324c-7.57 7.57-17.838 11.823-28.544 11.823h-9.648c-10.706 0-20.974 4.253-28.544 11.823-7.57 7.57-17.838 11.823-28.544 11.823h-19.632c-10.706 0-20.974 4.253-28.544 11.823l-5.517 5.518c-7.57 7.57-17.838 11.823-28.544 11.823h-7.141v22h37.141c10.706 0 20.974-4.253 28.544-11.823l5.517-5.518c7.57-7.57 17.838-11.823 28.544-11.823h19.632c10.706 0 20.973-4.253 28.544-11.823 7.57-7.57 17.838-11.823 28.544-11.823h9.648c10.706 0 20.974-4.253 28.544-11.823l10.518-10.518c5.717-5.716 1.667-15.493-6.419-15.493z" fill="#5392f9"/></g></g><g><g><path d="m294.729 394.324c-7.077-7.277-15.387-13.14-24.042-18.502h-3.795c-5.469 1.991-10.845 4.248-16.13 6.673-2.446 1.122-4.873 2.284-7.282 3.484-.795.396-1.584.802-2.374 1.205-.384.205-1.909 1.002-2.362 1.248 7.139 3.377 14.297 6.729 21.192 10.555 11.307 6.274 22.425 14.468 27.403 26.403 3.941 9.45 3.496 19.906 1.284 30.06-1.167 5.356 4.935 9.405 9.328 6.128 8.202-6.118 13.587-16.463 14.131-26.872.788-15.056-6.842-29.573-17.353-40.382z" fill="#bed9fd"/></g></g><g><g><path d="m281.236 32.744c0-18.084-14.657-32.744-32.736-32.744s-32.735 14.66-32.735 32.744c0 12.905 7.467 24.062 18.312 29.397v420.488c0 7.937 6.434 14.371 14.371 14.371s14.371-6.434 14.371-14.371v-420.434c10.902-5.314 18.417-16.504 18.417-29.451z" fill="#bed9fd"/></g></g><g><g><path d="m248.5 0c-5.408 0-10.505 1.32-15 3.643 10.531 5.442 17.736 16.427 17.736 29.101 0 12.672-7.207 23.645-17.735 29.088.194.1.38.212.576.309v292.313l-10 10.68 10 14.257v103.239c0 7.937 6.434 14.371 14.371 14.371s14.371-6.434 14.371-14.371v-191.775l10-12.915-10-21.75v-193.995c10.903-5.314 18.417-16.503 18.417-29.45 0-18.085-14.657-32.745-32.736-32.745z" fill="#9ec8fc"/></g></g><g><g><path d="m390.952 197.045c-1.711-8.697-6.244-16.72-12.544-22.945-5.493-5.428-12.33-9.49-19.81-11.441-3.523-.919-7.17-1.408-10.574-2.7-3.639-1.382-6.878-3.635-10.399-5.296-6.109-2.881-13.073-3.919-19.757-2.942-11.049 1.614-21.827 10.324-22.057 21.488-.17 8.27 5.605 15.96 13.104 19.451s16.344 3.227 24.24.761c5.363-1.675 10.661-4.349 16.262-3.917 6.408.495 12.155 5.464 13.807 11.675s-.755 13.244-5.71 17.337c-3.36 2.776-7.603 4.202-11.741 5.57-36.946 12.224-73.892 24.447-110.838 36.671-12.313 4.074-24.915 8.301-35.042 16.404-15.371 12.299-21.36 30.942-20.062 50.022 1.36 19.98 14.236 35.156 30.466 45.997 7.536 5.033 15.61 9.127 23.791 13.045v-31.77c-1.382-.801-2.765-1.601-4.147-2.401-5.889-3.41-11.908-6.928-16.249-12.168-8.888-10.729-8.312-28.092 1.268-38.208 6.531-6.897 15.945-10.112 24.966-13.085l22.892-7.544 13.625 5.51 12.53-14.129 58.892-19.408c9.144-3.013 18.468-6.119 26.169-11.897 13.274-9.959 20.121-27.798 16.918-44.08z" fill="#bed9fd"/></g></g><g><g><path d="m308.589 291.474c-5.328-8.579-11.014-13.919-19.616-19.046-13.077 4.31-13.628 4.527-26.155 8.619l.023 9.807c5.746 2.053 11.389 4.476 15.931 8.49 8.951 7.908 11.994 21.869 6.944 32.693-3.023 6.479-8.447 11.518-14.145 15.838-11.591 8.788-24.732 15.256-37.462 22.296-12.73 7.039-25.313 14.855-34.997 25.708-9.685 10.853-16.249 25.215-14.954 39.704.88 9.84 6 19.46 13.675 25.451 4.408 3.44 10.707-.414 9.576-5.89-2.126-10.29-2.886-20.781 1.066-30.319 5.267-12.712 17.737-20.786 29.937-27.148 25.624-13.361 55.088-24.36 69.773-49.249 2.25-3.814 4.04-7.905 5.348-12.147 4.588-14.878 3.249-31.616-4.944-44.807z" fill="#a2f5c3"/></g></g></g></svg>