<svg id="Layer_1" enable-background="new 0 0 496 496" height="512" viewBox="0 0 496 496" width="512" xmlns="http://www.w3.org/2000/svg"><path d="m392.776 472.325h103.224l-130.226-154.644-54.648 57.685z" fill="#ffb272"/><path d="m392.889 472.459h-392.889l208-219.555z" fill="#ffb272"/><path d="m273.523 472.459h119.366l-183.433-217.826z" fill="#af6a3a"/><path d="m163.519 299.856 44.481-46.952 60.147 71.425c73.904-9.851 130.917-73.125 130.917-149.724 0-83.431-67.634-151.064-151.064-151.064s-151.064 67.633-151.064 151.064c0 52.135 26.411 98.102 66.583 125.251z" fill="#ffd258"/><path d="m411.925 472.325h84.075l-129.2-153.425z" fill="#af6a3a"/><path d="m113 472.459h-113l208-219.555c-48.757 87.252-225.396 201.702-95 219.555z" fill="#ffd8b3"/><path d="m318.722 384.386 47.052-66.705-54.648 57.685z" fill="#ffd8b3"/><path d="m309.111 36.422c91.741 80.494 54.863 231.509-64.129 260.397l23.165 27.509c73.904-9.851 130.917-73.125 130.917-149.724 0-61.678-36.969-114.715-89.953-138.182z" fill="#ffb666"/><path d="m153.442 56.801c-79.222 63.672-74.459 185.924 10.077 243.054l20.634-21.78c-67.492-52.089-83.152-150.15-30.711-221.274z" fill="#fff0cb"/></svg>